<?xml version="1.0" encoding="UTF-8"?>
<svg id="Layer_1" data-name="Layer 1" xmlns="http://www.w3.org/2000/svg" viewBox="0 0 66.58 10.11">
  <defs>
    <style>
      .cls-1 {
        fill: #4667b0;
        stroke-width: 0px;
      }
    </style>
  </defs>
  <path class="cls-1" d="m0,8.04V0h3.45c1.77,0,2.89.88,2.89,2.4,0,1.33-.82,2.13-2.23,2.21v.1c.59.19.94.55,1.24,1.1l1.2,2.23h-1.5l-1.14-2.07c-.37-.7-.71-1.02-1.67-1.02h-.95v3.09H0ZM1.29,3.87h2.31c1.04,0,1.44-.38,1.44-1.36s-.4-1.35-1.44-1.35H1.29v2.71Z"/>
  <path class="cls-1" d="m6.88,5.05c0-1.85,1.1-3.09,2.88-3.09,1.61,0,2.73.96,2.73,2.59,0,.31-.04.64-.07.82h-4.33c.05,1.09.44,1.64,1.69,1.64,1,0,1.38-.34,1.38-.88v-.1h1.28v.11c0,1.22-1.07,2.01-2.67,2.01-1.97,0-2.89-1.25-2.89-3.11Zm1.22-.55h3.15c.05-1.02-.5-1.45-1.52-1.45-1.13,0-1.56.53-1.63,1.45Z"/>
  <path class="cls-1" d="m13.44,6.02v-.02h1.25v.22c0,.65.29.89,1.43.89.96,0,1.14-.22,1.14-.66,0-.48-.29-.62-1.16-.78l-.92-.16c-1.07-.19-1.74-.67-1.74-1.75s.89-1.8,2.45-1.8c1.4,0,2.46.7,2.46,2.05v.11h-1.24v-.14c0-.55-.19-.95-1.26-.95-.95,0-1.18.25-1.18.71s.22.59,1.06.76l1.01.19c1.15.23,1.75.74,1.75,1.73,0,1.1-.88,1.75-2.39,1.75-1.74,0-2.65-.68-2.65-2.13Z"/>
  <path class="cls-1" d="m19.45,5.76v-3.68h1.3v3.45c0,1.07.41,1.51,1.44,1.51s1.56-.43,1.56-1.61v-3.36h1.3v5.96h-1.2v-1.19h-.05c-.29.68-.92,1.31-2.09,1.31-1.56,0-2.25-1.04-2.25-2.4Z"/>
  <path class="cls-1" d="m26.32,8.04V2.07h1.19v1.12h.05c.28-.64.9-1.24,2.04-1.24,1.04,0,1.69.48,1.98,1.24h.04c.28-.62.89-1.24,2.06-1.24,1.54,0,2.22.98,2.22,2.34v3.74h-1.3v-3.45c0-1.07-.32-1.51-1.4-1.51-.98,0-1.44.41-1.44,1.5v3.47h-1.3v-3.45c0-1.07-.32-1.51-1.4-1.51-.98,0-1.44.41-1.44,1.49v3.48h-1.3Z"/>
  <path class="cls-1" d="m37.13,8.04V0h1.3v8.04h-1.3Z"/>
  <path class="cls-1" d="m39.71,9.97v-1.05h.82c.52,0,.7-.08.89-.53l.23-.5-2.53-5.8h1.43l1.2,2.89.54,1.29h.1l.49-1.29,1.09-2.89h1.43l-2.82,6.67c-.44,1.05-1.02,1.33-1.96,1.33-.32,0-.7-.05-.9-.11Z"/>
  <path class="cls-1" d="m45.05,8.04v-1.86h1.64v1.86h-1.64Z"/>
  <path class="cls-1" d="m47.45,6.56c0-.98.72-1.5,1.99-1.68l2.09-.31v-.32c0-.89-.41-1.15-1.34-1.15s-1.32.3-1.32,1.09v.18h-1.25v-.12c0-1.33,1.04-2.29,2.64-2.29s2.51,1.01,2.51,2.46v3.62h-1.2v-.94h-.06c-.35.56-1.03,1.06-2.16,1.06-1.07,0-1.89-.55-1.89-1.6Zm2.31.56c.84,0,1.76-.34,1.76-1.54v-.11l-1.9.29c-.68.1-.92.25-.92.7,0,.47.3.66,1.05.66Z"/>
  <path class="cls-1" d="m53.95,10.11V2.07h1.18v.98h.06c.28-.7.96-1.1,1.99-1.1,1.68,0,2.6,1.21,2.6,3.11s-.9,3.09-2.52,3.09c-1.07,0-1.73-.49-1.99-1.04h-.04v3h-1.28Zm2.91-3.06c1.14,0,1.62-.53,1.62-1.99s-.47-2-1.62-2c-1.05,0-1.63.47-1.63,1.46v1.07c0,1,.58,1.46,1.63,1.46Z"/>
  <path class="cls-1" d="m60.76,10.11V2.07h1.18v.98h.06c.28-.7.96-1.1,1.99-1.1,1.68,0,2.6,1.21,2.6,3.11s-.9,3.09-2.52,3.09c-1.07,0-1.73-.49-1.99-1.04h-.04v3h-1.28Zm2.91-3.06c1.14,0,1.62-.53,1.62-1.99s-.47-2-1.62-2c-1.05,0-1.63.47-1.63,1.46v1.07c0,1,.58,1.46,1.63,1.46Z"/>
</svg>